<svg xmlns="http://www.w3.org/2000/svg" viewBox="0 0 240 148"><style>.st0{fill:#fff}.st1{fill:#fff10c}.st2{fill:#00b4f1}.st3{fill:#53d329}.st4{fill:#ff5722}</style><path class="st0" d="M10.5 115c6.1 0 9.7 3.1 9.7 8.3 0 5.5-3.6 8.7-9.7 8.7H4v7.9H1.2V115h9.3zM4 129.3h6.4c4.5 0 7.1-2 7.1-5.9 0-3.8-2.6-5.7-7.1-5.7H4v11.6zm39.2-10.8l-1.7 2.2c-1.9-2-4.6-3.1-7.4-3.1-5.6 0-10.1 4.3-10.1 9.8 0 5.4 4.5 9.8 10.1 9.8 2.7 0 5.4-1.1 7.4-3l1.7 2c-2.5 2.3-5.8 3.8-9.2 3.8-7.2 0-12.9-5.6-12.9-12.6s5.8-12.5 13-12.5c3.4 0 6.7 1.4 9.1 3.6zm14.2 15.1l-2.8 6.3h-3L62.8 115h2.9l11.1 24.9h-3.1l-2.8-6.3H57.4zm6.8-15.4l-5.5 12.6h11.2l-5.7-12.6zm33.9 12.3c0 5.5-3.6 9.4-8.9 9.4-3.3 0-5.9-1.5-7.3-4.1v10.9h-2.8v-25.6h2.8v4c1.4-2.6 3.9-4.2 7.2-4.2 5.3.1 9 4 9 9.6zm-2.8 0c0-4-2.8-7-6.7-7-3.9 0-6.7 2.9-6.7 7s2.8 7 6.7 7c3.9-.1 6.7-3 6.7-7zm25.4 0c0 5.5-3.6 9.4-8.9 9.4-3.3 0-5.9-1.5-7.3-4.1v10.9h-2.8v-25.6h2.8v4c1.4-2.6 3.9-4.2 7.2-4.2 5.3.1 9 4 9 9.6zm-2.8 0c0-4-2.8-7-6.7-7-3.9 0-6.7 2.9-6.7 7s2.8 7 6.7 7c3.9-.1 6.7-3 6.7-7zm17.2-7.8l-1.1 2.2c-1.5-.9-3.3-1.5-5.1-1.5-2.1 0-3.7.7-3.7 2.5 0 4.2 10.4 2 10.4 8.7 0 3.7-3.3 5.3-6.9 5.3-2.7 0-5.4-.9-7.2-2.6l1.1-2.1c1.6 1.5 4 2.4 6.2 2.4s4-.8 4-2.7c.1-4.5-10.4-2.2-10.3-8.8 0-3.6 3.1-5.1 6.5-5.1 2.4 0 4.5.7 6.1 1.7zm7-5v8.7h11.6v2.7h-11.6v10.7h-2.8V115H155v2.7h-12.9zm18.5-1.9c0 1.1-.8 1.9-1.8 1.9s-1.8-.8-1.8-1.9c0-1.1.8-1.9 1.8-1.9 1-.1 1.8.8 1.8 1.9zm-3.2 24v-18.7h2.7v18.7h-2.7zm25.2-11.5v11.5h-2.8V129c0-3.3-2-5.3-5.3-5.3-3.7 0-6 2.5-6.3 6v10.1h-2.8v-18.7h2.8v4.1c1.3-2.8 3.8-4.2 7.2-4.2 4.6 0 7.2 2.8 7.2 7.3zm21.9 11.5h-2.8v-4c-1.4 2.6-3.9 4.2-7.3 4.2-5.3 0-9-3.9-9-9.5s3.7-9.5 9-9.5c3.3 0 5.9 1.5 7.3 4.2v-11.7h2.8v26.3zm-2.7-9.3c0-4.1-2.8-7-6.7-7-4 0-6.8 2.9-6.8 7 0 4 2.8 7 6.8 7 3.9 0 6.7-2.9 6.7-7zm24.4 1.1h-15.3c.5 3.7 3.2 6 6.8 6 2.3 0 4.3-.8 5.8-2.3l1.5 1.6c-1.8 2-4.4 3.1-7.5 3.1-5.5 0-9.3-3.9-9.3-9.4 0-5.6 3.8-9.4 9.3-9.4 6-.2 9 4 8.7 10.4zm-2.5-2.3c-.2-3.6-2.6-5.9-6.3-5.9-3.6 0-6.1 2.3-6.5 5.9h12.8zm8.6-4c1.2-2.7 3.6-4.2 6.7-4.3v2.8c-3.9-.1-6.4 2.4-6.7 6.1v9.9h-2.8v-18.7h2.8v4.2z" id="text"/><g id="logo"><g id="pixels_1_"><path class="st1" d="M125.9 26.1h8.5v8.5h-8.5z"/><path class="st2" d="M115.8 26.1h8.5v8.5h-8.5z"/><path class="st3" d="M125.9 46.1h8.5v8.5h-8.5z"/><path class="st4" d="M115.8 46.1h8.5v8.5h-8.5z"/><path class="st3" d="M105.8 26.1h8.5v8.5h-8.5z"/><path class="st2" d="M125.9 36.1h8.5v8.5h-8.5z"/><path class="st0" d="M115.8 36.1h8.5v8.5h-8.5z"/><path class="st4" d="M105.8 36.1h8.5v8.5h-8.5z"/><path class="st1" d="M105.8 46.1h8.5v8.5h-8.5z"/></g><path transform="rotate(-180 95.827 64.605)" class="st4" d="M92 60.7h7.7v7.7H92z"/><path transform="rotate(-180 111.427 67.849)" class="st2" d="M107.6 64h7.7v7.7h-7.7z"/><path transform="rotate(-180 92.583 49.005)" class="st3" d="M88.7 45.1h7.7v7.7h-7.7z"/><path transform="rotate(-180 82.853 77.58)" class="st1" d="M80.5 75.3h4.6v4.6h-4.6z"/><path transform="rotate(-180 83.162 64.45)" class="st3" d="M80.8 62.1h4.6v4.6h-4.6z"/><path transform="rotate(-180 95.981 77.27)" class="st2" d="M93.7 75h4.6v4.6h-4.6z"/><path class="st3" d="M140.5 12.2h7.7v7.7h-7.7z"/><path class="st1" d="M124.9 9h7.7v7.7h-7.7z"/><path class="st4" d="M143.7 27.8h7.7v7.7h-7.7z"/><path class="st2" d="M155 .8h4.6v4.6H155z"/><path class="st4" d="M154.7 13.9h4.6v4.6h-4.6z"/><path class="st1" d="M141.9 1.1h4.6v4.6h-4.6z"/><path class="st0" d="M120.1 14c-14.5 0-26.3 11.8-26.3 26.3s11.8 26.3 26.3 26.3c6 0 11.5-2 15.9-5.4l12.9 12.9c.7.7 1.6 1 2.5 1 .9 0 1.8-.3 2.5-1l.1-.1c1.4-1.4 1.4-3.6 0-5l-13-12.7c3.4-4.4 5.4-9.9 5.4-15.9 0-14.6-11.8-26.4-26.3-26.4zm0 48.1c-2.9 0-5.8-.6-8.4-1.7-2.6-1.1-4.9-2.7-6.9-4.7s-3.6-4.3-4.7-6.9c-1.1-2.7-1.7-5.5-1.7-8.4 0-2.9.6-5.8 1.7-8.4 1.1-2.6 2.7-4.9 4.7-6.9s4.3-3.6 6.9-4.7c2.7-1.1 5.5-1.7 8.4-1.7 2.9 0 5.8.6 8.4 1.7 2.6 1.1 4.9 2.7 6.9 4.7s3.6 4.3 4.7 6.9c1.1 2.7 1.7 5.5 1.7 8.4 0 2.9-.6 5.8-1.7 8.4-1.1 2.6-2.7 4.9-4.7 6.9s-4.3 3.6-6.9 4.7c-2.7 1.1-5.5 1.7-8.4 1.7z"/></g></svg>