<svg id="Layer_1" xmlns="http://www.w3.org/2000/svg" viewBox="0 0 170 26"><style>.st0{fill:#757575}</style><path class="st0" d="M8.2 3.1C12.5 3.1 15 5.2 15 9c0 3.9-2.5 6.1-6.8 6.1H3.6v5.5h-2V3.1h6.6zm-4.6 10h4.5c3.1 0 5-1.4 5-4.1 0-2.6-1.8-4-5-4H3.6v8.1zm27.6-7.5L30 7.1c-1.3-1.4-3.2-2.2-5.2-2.2-3.9 0-7.1 3-7.1 6.9 0 3.8 3.2 6.9 7.1 6.9 1.9 0 3.8-.8 5.2-2.1l1.2 1.4c-1.7 1.6-4.1 2.7-6.5 2.7-5 0-9-3.9-9-8.9 0-4.9 4-8.8 9.1-8.8 2.4 0 4.8 1 6.4 2.6zm10 10.5l-1.9 4.4h-2.1L45 3.1h2.1l7.8 17.5h-2.2l-1.9-4.4h-9.6zM46 5.3l-3.9 8.9h7.8L46 5.3zM69.9 14c0 3.9-2.5 6.6-6.3 6.6-2.3 0-4.1-1.1-5.1-2.9v7.7h-1.9v-18h1.9v2.8c1-1.8 2.8-2.9 5.1-2.9 3.7 0 6.3 2.8 6.3 6.7zm-2 0c0-2.8-1.9-4.9-4.7-4.9-2.8 0-4.7 2-4.7 4.9 0 2.9 1.9 4.9 4.7 4.9 2.7 0 4.7-2.1 4.7-4.9zm17.9 0c0 3.9-2.5 6.6-6.3 6.6-2.3 0-4.1-1.1-5.1-2.9v7.7h-1.9v-18h1.9v2.8c1-1.8 2.8-2.9 5.1-2.9 3.7 0 6.3 2.8 6.3 6.7zm-2 0c0-2.8-1.9-4.9-4.7-4.9-2.8 0-4.7 2-4.7 4.9 0 2.9 1.9 4.9 4.7 4.9 2.7 0 4.7-2.1 4.7-4.9zm12.1-5.5l-.8 1.5c-1-.6-2.3-1.1-3.6-1.1-1.4.1-2.5.6-2.5 1.8 0 2.9 7.3 1.4 7.3 6.1 0 2.6-2.3 3.7-4.8 3.7-1.9 0-3.8-.6-5-1.8l.7-1.5c1.1 1 2.8 1.7 4.4 1.7s2.8-.6 2.8-1.9c.1-3.2-7.3-1.5-7.3-6.2 0-2.5 2.2-3.6 4.6-3.6 1.6.1 3.1.6 4.2 1.3zm4.9-3.5v6.1h8.2V13h-8.2v7.5h-2V3.1h11.1V5h-9.1zm13-1.4c0 .8-.6 1.3-1.3 1.3-.7 0-1.3-.6-1.3-1.3s.5-1.3 1.3-1.3 1.3.5 1.3 1.3zm-2.2 16.9V7.4h1.9v13.2h-1.9zm17.7-8.1v8.1h-1.9V13c0-2.3-1.4-3.7-3.7-3.7-2.6 0-4.2 1.7-4.4 4.2v7.1h-1.9V7.4h1.9v2.9c.9-2 2.7-2.9 5.1-3 3.1 0 4.9 2 4.9 5.1zm15.5 8.1h-1.9v-2.8c-1 1.8-2.8 2.9-5.1 2.9-3.7 0-6.3-2.8-6.3-6.7 0-3.9 2.6-6.7 6.3-6.7 2.3 0 4.2 1.1 5.1 2.9V2h1.9v18.5zm-2-6.5c0-2.9-2-4.9-4.7-4.9-2.8 0-4.8 2.1-4.8 4.9 0 2.8 2 4.9 4.8 4.9 2.7 0 4.7-2 4.7-4.9zm17.2.7h-10.7c.4 2.6 2.2 4.2 4.8 4.2 1.6 0 3-.6 4.1-1.6l1.1 1.1c-1.2 1.4-3.1 2.2-5.3 2.2-3.9 0-6.5-2.7-6.5-6.6 0-3.9 2.7-6.6 6.5-6.6 4.1-.1 6.2 2.9 6 7.3zm-1.8-1.6c-.1-2.5-1.8-4.1-4.4-4.1-2.5 0-4.3 1.6-4.6 4.1h9zm6.1-2.8c.9-1.9 2.5-3 4.7-3v2c-2.8 0-4.5 1.7-4.7 4.3v7h-1.9V7.4h1.9v2.9z"/></svg>