<?xml version="1.0" encoding="utf-8"?>
<!-- Generator: Adobe Illustrator 21.0.0, SVG Export Plug-In . SVG Version: 6.00 Build 0)  -->
<svg version="1.1" id="Layer_1" xmlns="http://www.w3.org/2000/svg" xmlns:xlink="http://www.w3.org/1999/xlink" x="0px" y="0px"
	 viewBox="0 0 170 26" style="enable-background:new 0 0 170 26;" xml:space="preserve">
<style type="text/css">
	.st0{fill:#757575;}
</style>
<g>
	<path class="st0" d="M8.2,3.1c4.3,0,6.8,2.1,6.8,5.9c0,3.9-2.5,6.1-6.8,6.1H3.6v5.5h-2V3.1H8.2z M3.6,13.1h4.5c3.1,0,5-1.4,5-4.1
		c0-2.6-1.8-4-5-4H3.6V13.1z"/>
	<path class="st0" d="M31.2,5.6L30,7.1c-1.3-1.4-3.2-2.2-5.2-2.2c-3.9,0-7.1,3-7.1,6.9c0,3.8,3.2,6.9,7.1,6.9c1.9,0,3.8-0.8,5.2-2.1
		l1.2,1.4c-1.7,1.6-4.1,2.7-6.5,2.7c-5,0-9-3.9-9-8.9c0-4.9,4-8.8,9.1-8.8C27.2,3,29.6,4,31.2,5.6z"/>
	<path class="st0" d="M41.2,16.1l-1.9,4.4h-2.1L45,3.1h2.1l7.8,17.5h-2.2l-1.9-4.4H41.2z M46,5.3l-3.9,8.9h7.8L46,5.3z"/>
	<path class="st0" d="M69.9,14c0,3.9-2.5,6.6-6.3,6.6c-2.3,0-4.1-1.1-5.1-2.9v7.7h-1.9v-18h1.9v2.8c1-1.8,2.8-2.9,5.1-2.9
		C67.3,7.3,69.9,10.1,69.9,14z M67.9,14c0-2.8-1.9-4.9-4.7-4.9c-2.8,0-4.7,2-4.7,4.9c0,2.9,1.9,4.9,4.7,4.9
		C65.9,18.9,67.9,16.8,67.9,14z"/>
	<path class="st0" d="M85.8,14c0,3.9-2.5,6.6-6.3,6.6c-2.3,0-4.1-1.1-5.1-2.9v7.7h-1.9v-18h1.9v2.8c1-1.8,2.8-2.9,5.1-2.9
		C83.2,7.3,85.8,10.1,85.8,14z M83.8,14c0-2.8-1.9-4.9-4.7-4.9c-2.8,0-4.7,2-4.7,4.9c0,2.9,1.9,4.9,4.7,4.9
		C81.8,18.9,83.8,16.8,83.8,14z"/>
	<path class="st0" d="M95.9,8.5l-0.8,1.5c-1-0.6-2.3-1.1-3.6-1.1C90.1,9,89,9.5,89,10.7c0,2.9,7.3,1.4,7.3,6.1
		c0,2.6-2.3,3.7-4.8,3.7c-1.9,0-3.8-0.6-5-1.8l0.7-1.5c1.1,1,2.8,1.7,4.4,1.7s2.8-0.6,2.8-1.9c0.1-3.2-7.3-1.5-7.3-6.2
		c0-2.5,2.2-3.6,4.6-3.6C93.3,7.3,94.8,7.8,95.9,8.5z"/>
	<path class="st0" d="M100.8,5v6.1h8.2v1.9h-8.2v7.5h-2V3.1h11.1V5H100.8z"/>
	<path class="st0" d="M113.8,3.6c0,0.8-0.6,1.3-1.3,1.3c-0.7,0-1.3-0.6-1.3-1.3s0.5-1.3,1.3-1.3C113.3,2.3,113.8,2.8,113.8,3.6z
		 M111.6,20.5V7.4h1.9v13.2H111.6z"/>
	<path class="st0" d="M129.3,12.4v8.1h-1.9V13c0-2.3-1.4-3.7-3.7-3.7c-2.6,0-4.2,1.7-4.4,4.2v7.1h-1.9V7.4h1.9v2.9
		c0.9-2,2.7-2.9,5.1-3C127.5,7.3,129.3,9.3,129.3,12.4z"/>
	<path class="st0" d="M144.8,20.5h-1.9v-2.8c-1,1.8-2.8,2.9-5.1,2.9c-3.7,0-6.3-2.8-6.3-6.7c0-3.9,2.6-6.7,6.3-6.7
		c2.3,0,4.2,1.1,5.1,2.9V2h1.9V20.5z M142.8,14c0-2.9-2-4.9-4.7-4.9c-2.8,0-4.8,2.1-4.8,4.9c0,2.8,2,4.9,4.8,4.9
		C140.8,18.9,142.8,16.9,142.8,14z"/>
	<path class="st0" d="M160,14.7h-10.7c0.4,2.6,2.2,4.2,4.8,4.2c1.6,0,3-0.6,4.1-1.6l1.1,1.1c-1.2,1.4-3.1,2.2-5.3,2.2
		c-3.9,0-6.5-2.7-6.5-6.6c0-3.9,2.7-6.6,6.5-6.6C158.1,7.3,160.2,10.3,160,14.7z M158.2,13.1c-0.1-2.5-1.8-4.1-4.4-4.1
		c-2.5,0-4.3,1.6-4.6,4.1H158.2z"/>
	<path class="st0" d="M164.3,10.3c0.9-1.9,2.5-3,4.7-3v2c-2.8,0-4.5,1.7-4.7,4.3v7h-1.9V7.4h1.9V10.3z"/>
</g>
</svg>
