<?xml version="1.0" encoding="utf-8"?>
<!-- Generator: Adobe Illustrator 21.0.0, SVG Export Plug-In . SVG Version: 6.00 Build 0)  -->
<svg version="1.1" xmlns="http://www.w3.org/2000/svg" xmlns:xlink="http://www.w3.org/1999/xlink" x="0px" y="0px"
	 viewBox="0 0 240 148" style="enable-background:new 0 0 240 148;" xml:space="preserve">
<style type="text/css">
	.st0{fill:#FFFFFF;}
	.st1{fill:#FFF10C;}
	.st2{fill:#00B4F1;}
	.st3{fill:#53D329;}
	.st4{fill:#FF5722;}
</style>
<g id="text">
	<path class="st0" d="M10.5,115c6.1,0,9.7,3.1,9.7,8.3c0,5.5-3.6,8.7-9.7,8.7H4v7.9H1.2V115H10.5z M4,129.3h6.4c4.5,0,7.1-2,7.1-5.9
		c0-3.8-2.6-5.7-7.1-5.7H4V129.3z"/>
	<path class="st0" d="M43.2,118.5l-1.7,2.2c-1.9-2-4.6-3.1-7.4-3.1c-5.6,0-10.1,4.3-10.1,9.8c0,5.4,4.5,9.8,10.1,9.8
		c2.7,0,5.4-1.1,7.4-3l1.7,2c-2.5,2.3-5.8,3.8-9.2,3.8c-7.2,0-12.9-5.6-12.9-12.6c0-7,5.8-12.5,13-12.5
		C37.5,114.9,40.8,116.3,43.2,118.5z"/>
	<path class="st0" d="M57.4,133.6l-2.8,6.3h-3L62.8,115h2.9l11.1,24.9h-3.1l-2.8-6.3H57.4z M64.2,118.2l-5.5,12.6h11.2L64.2,118.2z"
		/>
	<path class="st0" d="M98.1,130.5c0,5.5-3.6,9.4-8.9,9.4c-3.3,0-5.9-1.5-7.3-4.1v10.9h-2.8v-25.6h2.8v4c1.4-2.6,3.9-4.2,7.2-4.2
		C94.4,121,98.1,124.9,98.1,130.5z M95.3,130.5c0-4-2.8-7-6.7-7c-3.9,0-6.7,2.9-6.7,7c0,4.1,2.8,7,6.7,7
		C92.5,137.4,95.3,134.5,95.3,130.5z"/>
	<path class="st0" d="M120.7,130.5c0,5.5-3.6,9.4-8.9,9.4c-3.3,0-5.9-1.5-7.3-4.1v10.9h-2.8v-25.6h2.8v4c1.4-2.6,3.9-4.2,7.2-4.2
		C117,121,120.7,124.9,120.7,130.5z M117.9,130.5c0-4-2.8-7-6.7-7c-3.9,0-6.7,2.9-6.7,7c0,4.1,2.8,7,6.7,7
		C115.1,137.4,117.9,134.5,117.9,130.5z"/>
	<path class="st0" d="M135.1,122.7l-1.1,2.2c-1.5-0.9-3.3-1.5-5.1-1.5c-2.1,0-3.7,0.7-3.7,2.5c0,4.2,10.4,2,10.4,8.7
		c0,3.7-3.3,5.3-6.9,5.3c-2.7,0-5.4-0.9-7.2-2.6l1.1-2.1c1.6,1.5,4,2.4,6.2,2.4c2.2,0,4-0.8,4-2.7c0.1-4.5-10.4-2.2-10.3-8.8
		c0-3.6,3.1-5.1,6.5-5.1C131.4,121,133.5,121.7,135.1,122.7z"/>
	<path class="st0" d="M142.1,117.7v8.7h11.6v2.7h-11.6v10.7h-2.8V115H155v2.7H142.1z"/>
	<path class="st0" d="M160.6,115.8c0,1.1-0.8,1.9-1.8,1.9c-1,0-1.8-0.8-1.8-1.9c0-1.1,0.8-1.9,1.8-1.9
		C159.8,113.8,160.6,114.7,160.6,115.8z M157.4,139.8v-18.7h2.7v18.7H157.4z"/>
	<path class="st0" d="M182.6,128.3v11.5h-2.8V129c0-3.3-2-5.3-5.3-5.3c-3.7,0-6,2.5-6.3,6v10.1h-2.8v-18.7h2.8v4.1
		c1.3-2.8,3.8-4.2,7.2-4.2C180,121,182.6,123.8,182.6,128.3z"/>
	<path class="st0" d="M204.5,139.8h-2.8v-4c-1.4,2.6-3.9,4.2-7.3,4.2c-5.3,0-9-3.9-9-9.5c0-5.6,3.7-9.5,9-9.5c3.3,0,5.9,1.5,7.3,4.2
		v-11.7h2.8V139.8z M201.8,130.5c0-4.1-2.8-7-6.7-7c-4,0-6.8,2.9-6.8,7c0,4,2.8,7,6.8,7C199,137.5,201.8,134.6,201.8,130.5z"/>
	<path class="st0" d="M226.2,131.6h-15.3c0.5,3.7,3.2,6,6.8,6c2.3,0,4.3-0.8,5.8-2.3l1.5,1.6c-1.8,2-4.4,3.1-7.5,3.1
		c-5.5,0-9.3-3.9-9.3-9.4c0-5.6,3.8-9.4,9.3-9.4C223.5,121,226.5,125.2,226.2,131.6z M223.7,129.3c-0.2-3.6-2.6-5.9-6.3-5.9
		c-3.6,0-6.1,2.3-6.5,5.9H223.7z"/>
	<path class="st0" d="M232.3,125.3c1.2-2.7,3.6-4.2,6.7-4.3v2.8c-3.9-0.1-6.4,2.4-6.7,6.1v9.9h-2.8v-18.7h2.8V125.3z"/>
</g>
<g id="logo">
	<g id="pixels_1_">
		<rect x="125.9" y="26.1" class="st1" width="8.5" height="8.5"/>
		<rect x="115.8" y="26.1" class="st2" width="8.5" height="8.5"/>
		<rect x="125.9" y="46.1" class="st3" width="8.5" height="8.5"/>
		<rect x="115.8" y="46.1" class="st4" width="8.5" height="8.5"/>
		<rect x="105.8" y="26.1" class="st3" width="8.5" height="8.5"/>
		<rect x="125.9" y="36.1" class="st2" width="8.5" height="8.5"/>
		<rect x="115.8" y="36.1" class="st0" width="8.5" height="8.5"/>
		<rect x="105.8" y="36.1" class="st4" width="8.5" height="8.5"/>
		<rect x="105.8" y="46.1" class="st1" width="8.5" height="8.5"/>
	</g>
	<g>
		
			<rect x="92" y="60.7" transform="matrix(-1 -1.224647e-16 1.224647e-16 -1 191.6538 129.2107)" class="st4" width="7.7" height="7.7"/>
		
			<rect x="107.6" y="64" transform="matrix(-1 -1.224647e-16 1.224647e-16 -1 222.8538 135.6978)" class="st2" width="7.7" height="7.7"/>
		
			<rect x="88.7" y="45.1" transform="matrix(-1 -1.224647e-16 1.224647e-16 -1 185.1667 98.0107)" class="st3" width="7.7" height="7.7"/>
		
			<rect x="80.5" y="75.3" transform="matrix(-1 -1.224647e-16 1.224647e-16 -1 165.7053 155.1592)" class="st1" width="4.6" height="4.6"/>
		
			<rect x="80.8" y="62.1" transform="matrix(-1 -1.224647e-16 1.224647e-16 -1 166.3231 128.9018)" class="st3" width="4.6" height="4.6"/>
		
			<rect x="93.7" y="75" transform="matrix(-1 -1.224647e-16 1.224647e-16 -1 191.9627 154.5414)" class="st2" width="4.6" height="4.6"/>
	</g>
	<g>
		<rect x="140.5" y="12.2" class="st3" width="7.7" height="7.7"/>
		<rect x="124.9" y="9" class="st1" width="7.7" height="7.7"/>
		<rect x="143.7" y="27.8" class="st4" width="7.7" height="7.7"/>
		<rect x="155" y="0.8" class="st2" width="4.6" height="4.6"/>
		<rect x="154.7" y="13.9" class="st4" width="4.6" height="4.6"/>
		<rect x="141.9" y="1.1" class="st1" width="4.6" height="4.6"/>
	</g>
	<g>
		<path class="st0" d="M120.1,14c-14.5,0-26.3,11.8-26.3,26.3c0,14.5,11.8,26.3,26.3,26.3c6,0,11.5-2,15.9-5.4l12.9,12.9
			c0.7,0.7,1.6,1,2.5,1c0.9,0,1.8-0.3,2.5-1l0.1-0.1c1.4-1.4,1.4-3.6,0-5L141,56.3c3.4-4.4,5.4-9.9,5.4-15.9
			C146.4,25.8,134.6,14,120.1,14L120.1,14z M120.1,62.1c-2.9,0-5.8-0.6-8.4-1.7c-2.6-1.1-4.9-2.7-6.9-4.7c-2-2-3.6-4.3-4.7-6.9
			c-1.1-2.7-1.7-5.5-1.7-8.4c0-2.9,0.6-5.8,1.7-8.4c1.1-2.6,2.7-4.9,4.7-6.9c2-2,4.3-3.6,6.9-4.7c2.7-1.1,5.5-1.7,8.4-1.7
			c2.9,0,5.8,0.6,8.4,1.7c2.6,1.1,4.9,2.7,6.9,4.7c2,2,3.6,4.3,4.7,6.9c1.1,2.7,1.7,5.5,1.7,8.4c0,2.9-0.6,5.8-1.7,8.4
			c-1.1,2.6-2.7,4.9-4.7,6.9c-2,2-4.3,3.6-6.9,4.7C125.8,61.5,123,62.1,120.1,62.1L120.1,62.1z"/>
	</g>
</g>
</svg>
